<?xml version="1.0" standalone="no"?>
<!DOCTYPE svg PUBLIC "-//W3C//DTD SVG 20010904//EN"
 "http://www.w3.org/TR/2001/REC-SVG-20010904/DTD/svg10.dtd">
<svg version="1.0" xmlns="http://www.w3.org/2000/svg"
 width="384.000000pt" height="384.000000pt" viewBox="0 0 384.000000 384.000000"
 preserveAspectRatio="xMidYMid meet">

<g transform="translate(0.000000,384.000000) scale(0.100000,-0.100000)"
fill="#000000" stroke="none">
<path d="M1939 3061 c-31 -3 -257 -6 -503 -6 -291 0 -446 -3 -446 -10 0 -7
168 -9 490 -7 l490 4 2 -129 c1 -70 0 -266 -1 -435 l-3 -308 118 0 c66 0 176
-2 247 -5 l127 -4 0 37 c0 20 3 111 5 202 12 392 12 444 5 405 -5 -22 -10
-112 -11 -200 -2 -88 -6 -182 -10 -210 -4 -27 -6 65 -3 205 3 169 1 250 -6
240 -6 -9 -10 -137 -10 -321 l0 -306 -206 -7 c-113 -4 -209 -5 -212 -1 -9 8
-5 721 4 799 l6 59 82 -7 c44 -3 143 -6 218 -7 79 -1 136 -5 132 -10 -3 -5 1
-9 10 -9 8 0 16 3 18 8 2 4 85 5 186 4 l182 -4 2 -41 1 -42 4 38 4 37 84 0 84
0 4 -42 4 -43 1 44 2 43 53 -6 c28 -3 66 -6 84 -6 29 0 32 -3 36 -37 l4 -38 1
38 2 37 131 0 131 0 -6 -102 c-3 -57 -8 -240 -11 -408 -3 -168 -8 -356 -11
-417 l-6 -113 -64 4 c-36 2 -64 0 -64 -6 0 -5 -4 -6 -10 -3 -6 4 -10 -6 -10
-23 l0 -28 77 4 76 4 -6 -238 c-4 -132 -7 -333 -8 -449 -1 -121 -4 -199 -9
-185 -7 22 -8 20 -9 -15 0 -29 2 -36 9 -25 7 11 10 3 10 -29 0 -42 -1 -43 -15
-25 -14 18 -14 18 -15 0 0 -17 -12 -18 -235 -15 l-235 4 2 300 2 300 6 -260 5
-260 8 229 c4 126 7 330 7 454 l0 224 80 -7 80 -7 0 32 0 32 -164 -4 c-91 -2
-163 -1 -160 4 3 4 -5 4 -18 0 -13 -4 -66 -6 -118 -5 -244 6 -373 4 -383 -6
-13 -13 -1 -41 18 -41 9 0 18 7 21 15 5 13 38 15 206 15 109 0 197 -4 194 -8
-3 -4 44 -8 105 -8 60 0 109 3 109 8 0 4 4 8 9 8 5 0 7 -24 5 -52 -2 -29 -5
-94 -8 -145 -2 -50 -7 -97 -11 -104 -5 -7 -4 -10 2 -6 5 3 10 0 10 -8 0 -8 -4
-12 -8 -10 -7 5 -10 -106 -13 -490 l-1 -220 259 -3 c143 -1 263 1 268 6 6 6
15 928 9 999 -1 8 -26 13 -73 16 l-73 3 78 2 c73 2 77 3 77 25 0 12 2 83 5
157 14 465 21 888 13 895 -2 2 -107 5 -233 6 -127 2 -275 6 -330 10 -143 10
-919 18 -986 10z m1168 -1105 c4 -3 -27 -6 -68 -5 -41 0 -66 3 -57 7 20 8 117
7 125 -2z m-160 -388 c-3 -8 -6 -5 -6 6 -1 11 2 17 5 13 3 -3 4 -12 1 -19z"/>
<path d="M522 3045 c-4 -5 -7 -289 -7 -630 0 -341 -3 -624 -6 -630 -7 -11 -24
-324 -24 -445 l0 -75 30 -1 c100 -4 328 -16 373 -19 28 -3 52 -4 52 -2 0 1 3
92 6 202 3 110 9 223 14 250 5 28 10 102 11 165 l2 116 266 -3 c146 -2 291 -7
321 -13 69 -11 130 -11 130 1 0 11 342 10 350 -1 3 -4 22 -10 43 -13 35 -5 37
-4 37 21 0 20 -3 23 -12 14 -6 -6 -17 -8 -27 -3 -9 5 -59 9 -111 9 -52 0 -292
1 -532 1 l-438 1 0 220 c0 213 -1 220 -20 220 -19 0 -20 -7 -20 -111 l0 -110
-62 2 c-49 2 -64 -1 -66 -12 -2 -12 9 -14 63 -11 l65 4 0 -139 c0 -77 -3 -173
-6 -214 l-7 -74 -43 4 c-56 4 -59 -16 -4 -25 37 -6 40 -9 40 -39 0 -30 -2 -32
-42 -33 -57 -3 -59 -9 -4 -17 48 -8 52 -15 40 -61 -5 -19 -11 -21 -45 -17 -25
4 -39 2 -39 -6 0 -6 18 -11 44 -11 l44 0 -4 -77 c-3 -43 -7 -111 -10 -151 l-6
-74 -31 6 c-18 3 -113 8 -212 12 l-181 7 3 31 c3 31 19 367 29 586 2 63 7 157
10 208 l6 92 60 0 c37 0 57 4 53 10 -4 6 -11 8 -16 5 -5 -4 -9 14 -9 39 0 25
-4 46 -10 46 -5 0 -10 -18 -10 -40 0 -40 0 -40 -40 -40 l-39 0 -1 410 0 410
39 0 c40 0 40 0 44 -42 l4 -43 1 43 2 42 85 0 84 0 -4 -28 c-2 -16 1 -35 6
-43 6 -9 9 0 9 29 l0 42 80 0 80 0 0 -70 c0 -63 2 -70 20 -70 18 0 20 7 20 54
0 55 -14 82 -24 49 -3 -10 -4 -3 -2 15 2 26 -1 33 -18 37 -42 9 -428 0 -434
-10z m1101 -1072 c-13 -2 -33 -2 -45 0 -13 2 -3 4 22 4 25 0 35 -2 23 -4z"/>
<path d="M1091 3001 c26 -41 -15 -68 -53 -34 -10 9 -18 11 -18 5 0 -17 30 -42
50 -42 39 0 64 52 38 78 -19 19 -30 14 -17 -7z"/>
<path d="M1605 2560 c3 -5 8 -10 11 -10 2 0 4 5 4 10 0 6 -5 10 -11 10 -5 0
-7 -4 -4 -10z"/>
<path d="M2348 2443 c10 -4 8 -9 -7 -20 -12 -8 -21 -25 -21 -38 0 -44 50 -71
78 -43 19 19 14 30 -7 17 -38 -25 -81 21 -45 48 11 8 29 11 42 8 15 -4 21 -2
17 5 -3 5 -13 10 -21 10 -8 0 -14 5 -14 10 0 6 -8 10 -17 9 -12 0 -14 -2 -5
-6z"/>
<path d="M1330 2414 c0 -8 5 -12 10 -9 6 4 8 11 5 16 -9 14 -15 11 -15 -7z"/>
<path d="M1600 2415 c0 -8 5 -15 10 -15 6 0 10 7 10 15 0 8 -4 15 -10 15 -5 0
-10 -7 -10 -15z"/>
<path d="M638 2183 c7 -3 16 -2 19 1 4 3 -2 6 -13 5 -11 0 -14 -3 -6 -6z"/>
<path d="M2140 1891 c0 -11 26 -22 34 -14 3 3 3 10 0 14 -7 12 -34 11 -34 0z"/>
</g>
</svg>
